<svg id="visual" viewBox="0 0 1920 1080" width="1920" height="1080" xmlns="http://www.w3.org/2000/svg" xmlns:xlink="http://www.w3.org/1999/xlink" version="1.1"><g stroke-width="1" stroke-linejoin="bevel"><path d="M982 593L955 638L1040 670Z" fill="#1d4e6b" stroke="#1d4e6b"></path><path d="M955 638L1020 732L1040 670Z" fill="#297ea6" stroke="#297ea6"></path><path d="M815 585L903 690L955 638Z" fill="#15384f" stroke="#15384f"></path><path d="M955 638L903 690L1020 732Z" fill="#246688" stroke="#246688"></path><path d="M903 690L1000 801L1020 732Z" fill="#00101c" stroke="#00101c"></path><path d="M1020 732L1158 721L1040 670Z" fill="#15384f" stroke="#15384f"></path><path d="M1170 571L1074 487L982 593Z" fill="#19435d" stroke="#19435d"></path><path d="M1081 824L1158 721L1020 732Z" fill="#277297" stroke="#277297"></path><path d="M1040 670L1170 571L982 593Z" fill="#0c2435" stroke="#0c2435"></path><path d="M1196 670L1170 571L1040 670Z" fill="#00101c" stroke="#00101c"></path><path d="M1074 487L906 479L982 593Z" fill="#205a7a" stroke="#205a7a"></path><path d="M851 509L815 585L955 638Z" fill="#1d4e6b" stroke="#1d4e6b"></path><path d="M1158 721L1196 670L1040 670Z" fill="#297ea6" stroke="#297ea6"></path><path d="M851 509L955 638L982 593Z" fill="#19435d" stroke="#19435d"></path><path d="M906 479L851 509L982 593Z" fill="#297ea6" stroke="#297ea6"></path><path d="M1000 801L1081 824L1020 732Z" fill="#112e42" stroke="#112e42"></path><path d="M731 687L842 773L903 690Z" fill="#19435d" stroke="#19435d"></path><path d="M903 690L842 773L1000 801Z" fill="#0c2435" stroke="#0c2435"></path><path d="M1113 875L1109 842L1081 824Z" fill="#297ea6" stroke="#297ea6"></path><path d="M1118 408L1069 423L1074 487Z" fill="#15384f" stroke="#15384f"></path><path d="M1074 487L1069 423L906 479Z" fill="#1d4e6b" stroke="#1d4e6b"></path><path d="M1113 875L1081 824L1074 942Z" fill="#00101c" stroke="#00101c"></path><path d="M1081 824L1109 842L1158 721Z" fill="#246688" stroke="#246688"></path><path d="M1158 721L1253 685L1196 670Z" fill="#15384f" stroke="#15384f"></path><path d="M842 773L899 861L1000 801Z" fill="#1d4e6b" stroke="#1d4e6b"></path><path d="M834 427L790 508L851 509Z" fill="#297ea6" stroke="#297ea6"></path><path d="M851 509L790 508L815 585Z" fill="#112e42" stroke="#112e42"></path><path d="M815 585L731 687L903 690Z" fill="#19435d" stroke="#19435d"></path><path d="M834 427L851 509L906 479Z" fill="#297ea6" stroke="#297ea6"></path><path d="M1290 554L1197 478L1170 571Z" fill="#297ea6" stroke="#297ea6"></path><path d="M1170 571L1197 478L1074 487Z" fill="#081a28" stroke="#081a28"></path><path d="M1290 767L1253 685L1158 721Z" fill="#205a7a" stroke="#205a7a"></path><path d="M1196 670L1290 554L1170 571Z" fill="#15384f" stroke="#15384f"></path><path d="M1197 478L1118 408L1074 487Z" fill="#00101c" stroke="#00101c"></path><path d="M851 373L834 427L906 479Z" fill="#15384f" stroke="#15384f"></path><path d="M1000 948L1081 824L1000 801Z" fill="#277297" stroke="#277297"></path><path d="M1109 842L1208 869L1158 721Z" fill="#15384f" stroke="#15384f"></path><path d="M984 361L906 479L1069 423Z" fill="#081a28" stroke="#081a28"></path><path d="M1050 330L984 361L1069 423Z" fill="#0c2435" stroke="#0c2435"></path><path d="M723 687L731 687L709 548Z" fill="#15384f" stroke="#15384f"></path><path d="M842 773L801 829L899 861Z" fill="#246688" stroke="#246688"></path><path d="M731 687L801 829L842 773Z" fill="#0c2435" stroke="#0c2435"></path><path d="M709 548L731 687L815 585Z" fill="#277297" stroke="#277297"></path><path d="M731 687L680 713L801 829Z" fill="#112e42" stroke="#112e42"></path><path d="M834 427L758 481L790 508Z" fill="#1d4e6b" stroke="#1d4e6b"></path><path d="M790 508L709 548L815 585Z" fill="#246688" stroke="#246688"></path><path d="M1253 685L1290 554L1196 670Z" fill="#00101c" stroke="#00101c"></path><path d="M1133 334L1050 330L1118 408Z" fill="#205a7a" stroke="#205a7a"></path><path d="M984 361L851 373L906 479Z" fill="#081a28" stroke="#081a28"></path><path d="M834 427L728 420L758 481Z" fill="#15384f" stroke="#15384f"></path><path d="M758 481L709 548L790 508Z" fill="#19435d" stroke="#19435d"></path><path d="M1113 875L1208 869L1109 842Z" fill="#1d4e6b" stroke="#1d4e6b"></path><path d="M1253 685L1324 713L1290 554Z" fill="#205a7a" stroke="#205a7a"></path><path d="M1133 334L1118 408L1187 321Z" fill="#15384f" stroke="#15384f"></path><path d="M1118 408L1050 330L1069 423Z" fill="#15384f" stroke="#15384f"></path><path d="M984 361L892 281L851 373Z" fill="#15384f" stroke="#15384f"></path><path d="M895 940L1000 948L899 861Z" fill="#112e42" stroke="#112e42"></path><path d="M899 861L1000 948L1000 801Z" fill="#081a28" stroke="#081a28"></path><path d="M1113 875L1172 932L1208 869Z" fill="#081a28" stroke="#081a28"></path><path d="M1000 948L1074 942L1081 824Z" fill="#15384f" stroke="#15384f"></path><path d="M1277 794L1290 767L1158 721Z" fill="#081a28" stroke="#081a28"></path><path d="M1208 869L1277 794L1158 721Z" fill="#00101c" stroke="#00101c"></path><path d="M811 929L895 940L899 861Z" fill="#081a28" stroke="#081a28"></path><path d="M1404 650L1310 531L1290 554Z" fill="#297ea6" stroke="#297ea6"></path><path d="M1290 554L1310 531L1197 478Z" fill="#00101c" stroke="#00101c"></path><path d="M1376 689L1324 713L1384 762Z" fill="#246688" stroke="#246688"></path><path d="M1290 767L1324 713L1253 685Z" fill="#277297" stroke="#277297"></path><path d="M1187 321L1118 408L1197 478Z" fill="#297ea6" stroke="#297ea6"></path><path d="M661 648L680 713L723 687Z" fill="#246688" stroke="#246688"></path><path d="M723 687L680 713L731 687Z" fill="#081a28" stroke="#081a28"></path><path d="M801 829L811 929L899 861Z" fill="#246688" stroke="#246688"></path><path d="M1074 942L1172 932L1113 875Z" fill="#277297" stroke="#277297"></path><path d="M1208 869L1293 867L1277 794Z" fill="#19435d" stroke="#19435d"></path><path d="M709 548L661 648L723 687Z" fill="#277297" stroke="#277297"></path><path d="M895 940L946 980L1000 948Z" fill="#19435d" stroke="#19435d"></path><path d="M1000 948L1057 1080L1074 942Z" fill="#1d4e6b" stroke="#1d4e6b"></path><path d="M1244 1080L1217 934L1172 932Z" fill="#15384f" stroke="#15384f"></path><path d="M802 940L811 929L801 829Z" fill="#081a28" stroke="#081a28"></path><path d="M902 1080L958 1080L946 980Z" fill="#19435d" stroke="#19435d"></path><path d="M851 373L728 420L834 427Z" fill="#1d4e6b" stroke="#1d4e6b"></path><path d="M758 481L655 450L709 548Z" fill="#0c2435" stroke="#0c2435"></path><path d="M709 548L539 597L661 648Z" fill="#081a28" stroke="#081a28"></path><path d="M675 850L802 940L801 829Z" fill="#297ea6" stroke="#297ea6"></path><path d="M811 929L802 940L895 940Z" fill="#0c2435" stroke="#0c2435"></path><path d="M1234 307L1187 321L1286 327Z" fill="#277297" stroke="#277297"></path><path d="M1133 334L1097 209L1050 330Z" fill="#0c2435" stroke="#0c2435"></path><path d="M1172 932L1217 934L1208 869Z" fill="#205a7a" stroke="#205a7a"></path><path d="M1277 794L1384 762L1290 767Z" fill="#277297" stroke="#277297"></path><path d="M1131 1080L1172 932L1074 942Z" fill="#297ea6" stroke="#297ea6"></path><path d="M1299 894L1293 867L1208 869Z" fill="#1d4e6b" stroke="#1d4e6b"></path><path d="M903 249L984 361L1050 330Z" fill="#00101c" stroke="#00101c"></path><path d="M903 249L892 281L984 361Z" fill="#246688" stroke="#246688"></path><path d="M851 373L800 295L728 420Z" fill="#0c2435" stroke="#0c2435"></path><path d="M1384 762L1324 713L1290 767Z" fill="#246688" stroke="#246688"></path><path d="M1324 713L1376 689L1290 554Z" fill="#15384f" stroke="#15384f"></path><path d="M1217 934L1299 894L1208 869Z" fill="#112e42" stroke="#112e42"></path><path d="M1293 867L1384 762L1277 794Z" fill="#246688" stroke="#246688"></path><path d="M661 835L801 829L680 713Z" fill="#297ea6" stroke="#297ea6"></path><path d="M661 835L675 850L801 829Z" fill="#112e42" stroke="#112e42"></path><path d="M634 428L655 450L728 420Z" fill="#112e42" stroke="#112e42"></path><path d="M728 420L655 450L758 481Z" fill="#15384f" stroke="#15384f"></path><path d="M630 795L661 835L680 713Z" fill="#205a7a" stroke="#205a7a"></path><path d="M630 795L680 713L524 750Z" fill="#081a28" stroke="#081a28"></path><path d="M892 281L800 295L851 373Z" fill="#246688" stroke="#246688"></path><path d="M1412 840L1384 762L1293 867Z" fill="#1d4e6b" stroke="#1d4e6b"></path><path d="M1438 702L1404 650L1376 689Z" fill="#246688" stroke="#246688"></path><path d="M1376 689L1404 650L1290 554Z" fill="#277297" stroke="#277297"></path><path d="M1286 327L1187 321L1197 478Z" fill="#081a28" stroke="#081a28"></path><path d="M1097 209L903 249L1050 330Z" fill="#0c2435" stroke="#0c2435"></path><path d="M892 281L903 249L800 295Z" fill="#15384f" stroke="#15384f"></path><path d="M1286 327L1197 478L1344 372Z" fill="#205a7a" stroke="#205a7a"></path><path d="M1187 321L1186 242L1133 334Z" fill="#297ea6" stroke="#297ea6"></path><path d="M532 659L680 713L661 648Z" fill="#277297" stroke="#277297"></path><path d="M634 428L616 479L655 450Z" fill="#297ea6" stroke="#297ea6"></path><path d="M655 450L616 479L709 548Z" fill="#15384f" stroke="#15384f"></path><path d="M1344 372L1197 478L1310 531Z" fill="#00101c" stroke="#00101c"></path><path d="M633 368L634 428L728 420Z" fill="#00101c" stroke="#00101c"></path><path d="M1404 650L1403 485L1310 531Z" fill="#1d4e6b" stroke="#1d4e6b"></path><path d="M1403 485L1344 372L1310 531Z" fill="#0c2435" stroke="#0c2435"></path><path d="M1296 200L1186 242L1234 307Z" fill="#297ea6" stroke="#297ea6"></path><path d="M1234 307L1186 242L1187 321Z" fill="#246688" stroke="#246688"></path><path d="M1113 144L1214 102L1109 122Z" fill="#00101c" stroke="#00101c"></path><path d="M1186 242L1097 209L1133 334Z" fill="#297ea6" stroke="#297ea6"></path><path d="M1483 750L1438 702L1384 762Z" fill="#081a28" stroke="#081a28"></path><path d="M1384 762L1438 702L1376 689Z" fill="#246688" stroke="#246688"></path><path d="M1494 578L1462 500L1403 485Z" fill="#15384f" stroke="#15384f"></path><path d="M1186 242L1104 203L1097 209Z" fill="#297ea6" stroke="#297ea6"></path><path d="M997 136L893 196L903 249Z" fill="#00101c" stroke="#00101c"></path><path d="M902 1080L946 980L895 940Z" fill="#081a28" stroke="#081a28"></path><path d="M946 980L1057 1080L1000 948Z" fill="#246688" stroke="#246688"></path><path d="M1346 1017L1392 942L1299 894Z" fill="#19435d" stroke="#19435d"></path><path d="M902 1080L895 940L823 1080Z" fill="#112e42" stroke="#112e42"></path><path d="M958 1080L1057 1080L946 980Z" fill="#246688" stroke="#246688"></path><path d="M800 295L668 342L728 420Z" fill="#0c2435" stroke="#0c2435"></path><path d="M738 213L668 342L800 295Z" fill="#277297" stroke="#277297"></path><path d="M997 136L903 249L1097 209Z" fill="#205a7a" stroke="#205a7a"></path><path d="M903 249L893 196L800 295Z" fill="#0c2435" stroke="#0c2435"></path><path d="M823 1080L895 940L802 940Z" fill="#0c2435" stroke="#0c2435"></path><path d="M1299 894L1412 840L1293 867Z" fill="#0c2435" stroke="#0c2435"></path><path d="M1392 942L1412 840L1299 894Z" fill="#0c2435" stroke="#0c2435"></path><path d="M668 342L633 368L728 420Z" fill="#19435d" stroke="#19435d"></path><path d="M427 411L473 559L616 479Z" fill="#19435d" stroke="#19435d"></path><path d="M1057 1080L1131 1080L1074 942Z" fill="#112e42" stroke="#112e42"></path><path d="M642 952L802 940L675 850Z" fill="#081a28" stroke="#081a28"></path><path d="M642 952L767 1033L802 940Z" fill="#00101c" stroke="#00101c"></path><path d="M642 952L675 850L661 835Z" fill="#0c2435" stroke="#0c2435"></path><path d="M473 559L539 597L616 479Z" fill="#205a7a" stroke="#205a7a"></path><path d="M616 479L539 597L709 548Z" fill="#00101c" stroke="#00101c"></path><path d="M539 597L532 659L661 648Z" fill="#297ea6" stroke="#297ea6"></path><path d="M526 913L642 952L661 835Z" fill="#1d4e6b" stroke="#1d4e6b"></path><path d="M1494 578L1403 485L1404 650Z" fill="#15384f" stroke="#15384f"></path><path d="M1403 485L1424 399L1344 372Z" fill="#0c2435" stroke="#0c2435"></path><path d="M767 1033L823 1080L802 940Z" fill="#277297" stroke="#277297"></path><path d="M526 913L661 835L630 795Z" fill="#205a7a" stroke="#205a7a"></path><path d="M767 1033L656 1080L823 1080Z" fill="#19435d" stroke="#19435d"></path><path d="M1462 500L1424 399L1403 485Z" fill="#297ea6" stroke="#297ea6"></path><path d="M1344 372L1407 325L1286 327Z" fill="#205a7a" stroke="#205a7a"></path><path d="M1491 788L1483 750L1384 762Z" fill="#112e42" stroke="#112e42"></path><path d="M1438 702L1494 578L1404 650Z" fill="#0c2435" stroke="#0c2435"></path><path d="M473 559L513 678L532 659Z" fill="#00101c" stroke="#00101c"></path><path d="M532 659L524 750L680 713Z" fill="#112e42" stroke="#112e42"></path><path d="M513 678L524 750L532 659Z" fill="#19435d" stroke="#19435d"></path><path d="M1554 685L1494 578L1438 702Z" fill="#205a7a" stroke="#205a7a"></path><path d="M1471 358L1407 325L1424 399Z" fill="#19435d" stroke="#19435d"></path><path d="M1346 1017L1299 894L1217 934Z" fill="#19435d" stroke="#19435d"></path><path d="M1412 840L1491 788L1384 762Z" fill="#112e42" stroke="#112e42"></path><path d="M893 196L738 213L800 295Z" fill="#205a7a" stroke="#205a7a"></path><path d="M516 290L521 339L633 368Z" fill="#205a7a" stroke="#205a7a"></path><path d="M1113 144L1097 209L1104 203Z" fill="#0c2435" stroke="#0c2435"></path><path d="M1113 144L997 136L1097 209Z" fill="#081a28" stroke="#081a28"></path><path d="M893 196L786 73L738 213Z" fill="#277297" stroke="#277297"></path><path d="M1131 1080L1244 1080L1172 932Z" fill="#19435d" stroke="#19435d"></path><path d="M1296 200L1234 307L1286 327Z" fill="#297ea6" stroke="#297ea6"></path><path d="M1186 242L1113 144L1104 203Z" fill="#112e42" stroke="#112e42"></path><path d="M1471 358L1424 399L1462 500Z" fill="#297ea6" stroke="#297ea6"></path><path d="M1424 399L1407 325L1344 372Z" fill="#246688" stroke="#246688"></path><path d="M1528 910L1491 788L1412 840Z" fill="#081a28" stroke="#081a28"></path><path d="M1595 538L1523 531L1494 578Z" fill="#081a28" stroke="#081a28"></path><path d="M1244 1080L1346 1017L1217 934Z" fill="#277297" stroke="#277297"></path><path d="M1392 942L1528 910L1412 840Z" fill="#277297" stroke="#277297"></path><path d="M1066 84L974 126L997 136Z" fill="#19435d" stroke="#19435d"></path><path d="M997 136L974 126L893 196Z" fill="#00101c" stroke="#00101c"></path><path d="M974 126L897 125L893 196Z" fill="#19435d" stroke="#19435d"></path><path d="M1113 144L1109 122L997 136Z" fill="#19435d" stroke="#19435d"></path><path d="M974 126L903 0L897 125Z" fill="#1d4e6b" stroke="#1d4e6b"></path><path d="M1214 102L1113 144L1186 242Z" fill="#00101c" stroke="#00101c"></path><path d="M1407 325L1296 200L1286 327Z" fill="#0c2435" stroke="#0c2435"></path><path d="M528 919L623 1003L642 952Z" fill="#1d4e6b" stroke="#1d4e6b"></path><path d="M642 952L623 1003L767 1033Z" fill="#19435d" stroke="#19435d"></path><path d="M1554 685L1438 702L1483 750Z" fill="#205a7a" stroke="#205a7a"></path><path d="M1494 578L1523 531L1462 500Z" fill="#0c2435" stroke="#0c2435"></path><path d="M513 678L483 735L524 750Z" fill="#081a28" stroke="#081a28"></path><path d="M524 750L526 913L630 795Z" fill="#246688" stroke="#246688"></path><path d="M427 687L483 735L513 678Z" fill="#15384f" stroke="#15384f"></path><path d="M786 73L693 206L738 213Z" fill="#19435d" stroke="#19435d"></path><path d="M738 213L681 213L668 342Z" fill="#1d4e6b" stroke="#1d4e6b"></path><path d="M521 339L616 479L634 428Z" fill="#19435d" stroke="#19435d"></path><path d="M539 597L473 559L532 659Z" fill="#1d4e6b" stroke="#1d4e6b"></path><path d="M693 206L681 213L738 213Z" fill="#081a28" stroke="#081a28"></path><path d="M521 339L634 428L633 368Z" fill="#112e42" stroke="#112e42"></path><path d="M1575 421L1471 358L1462 500Z" fill="#19435d" stroke="#19435d"></path><path d="M1407 325L1487 235L1296 200Z" fill="#081a28" stroke="#081a28"></path><path d="M403 813L526 913L524 750Z" fill="#15384f" stroke="#15384f"></path><path d="M1591 736L1554 685L1483 750Z" fill="#277297" stroke="#277297"></path><path d="M526 913L528 919L642 952Z" fill="#297ea6" stroke="#297ea6"></path><path d="M1207 0L1066 84L1109 122Z" fill="#297ea6" stroke="#297ea6"></path><path d="M1109 122L1066 84L997 136Z" fill="#1d4e6b" stroke="#1d4e6b"></path><path d="M527 1080L656 1080L623 1003Z" fill="#246688" stroke="#246688"></path><path d="M623 1003L656 1080L767 1033Z" fill="#1d4e6b" stroke="#1d4e6b"></path><path d="M1398 47L1253 129L1296 200Z" fill="#277297" stroke="#277297"></path><path d="M1296 200L1253 129L1186 242Z" fill="#112e42" stroke="#112e42"></path><path d="M516 290L633 368L668 342Z" fill="#19435d" stroke="#19435d"></path><path d="M1253 129L1214 102L1186 242Z" fill="#1d4e6b" stroke="#1d4e6b"></path><path d="M473 559L427 687L513 678Z" fill="#081a28" stroke="#081a28"></path><path d="M483 735L403 813L524 750Z" fill="#112e42" stroke="#112e42"></path><path d="M526 913L423 955L528 919Z" fill="#277297" stroke="#277297"></path><path d="M374 588L427 687L473 559Z" fill="#246688" stroke="#246688"></path><path d="M1487 1042L1528 910L1392 942Z" fill="#246688" stroke="#246688"></path><path d="M1491 788L1591 736L1483 750Z" fill="#081a28" stroke="#081a28"></path><path d="M1399 1080L1392 942L1346 1017Z" fill="#297ea6" stroke="#297ea6"></path><path d="M1244 1080L1399 1080L1346 1017Z" fill="#1d4e6b" stroke="#1d4e6b"></path><path d="M1596 763L1591 736L1491 788Z" fill="#00101c" stroke="#00101c"></path><path d="M1554 685L1595 538L1494 578Z" fill="#0c2435" stroke="#0c2435"></path><path d="M1523 531L1575 421L1462 500Z" fill="#205a7a" stroke="#205a7a"></path><path d="M681 213L516 290L668 342Z" fill="#246688" stroke="#246688"></path><path d="M521 339L427 411L616 479Z" fill="#1d4e6b" stroke="#1d4e6b"></path><path d="M472 246L516 290L545 159Z" fill="#1d4e6b" stroke="#1d4e6b"></path><path d="M1686 664L1595 538L1554 685Z" fill="#081a28" stroke="#081a28"></path><path d="M824 0L786 73L897 125Z" fill="#246688" stroke="#246688"></path><path d="M897 125L786 73L893 196Z" fill="#0c2435" stroke="#0c2435"></path><path d="M693 206L650 77L681 213Z" fill="#1d4e6b" stroke="#1d4e6b"></path><path d="M1528 910L1596 763L1491 788Z" fill="#19435d" stroke="#19435d"></path><path d="M1591 736L1686 664L1554 685Z" fill="#277297" stroke="#277297"></path><path d="M1595 538L1592 482L1523 531Z" fill="#00101c" stroke="#00101c"></path><path d="M1471 358L1487 235L1407 325Z" fill="#15384f" stroke="#15384f"></path><path d="M1592 482L1575 421L1523 531Z" fill="#297ea6" stroke="#297ea6"></path><path d="M441 330L427 411L521 339Z" fill="#0c2435" stroke="#0c2435"></path><path d="M254 731L403 813L427 687Z" fill="#15384f" stroke="#15384f"></path><path d="M427 687L403 813L483 735Z" fill="#246688" stroke="#246688"></path><path d="M528 919L527 1080L623 1003Z" fill="#081a28" stroke="#081a28"></path><path d="M1498 239L1487 235L1471 358Z" fill="#15384f" stroke="#15384f"></path><path d="M1244 0L1207 0L1214 102Z" fill="#205a7a" stroke="#205a7a"></path><path d="M1399 1080L1487 1042L1392 942Z" fill="#1d4e6b" stroke="#1d4e6b"></path><path d="M1723 867L1677 748L1596 763Z" fill="#15384f" stroke="#15384f"></path><path d="M339 446L374 588L473 559Z" fill="#081a28" stroke="#081a28"></path><path d="M1565 316L1498 239L1471 358Z" fill="#205a7a" stroke="#205a7a"></path><path d="M1244 0L1214 102L1253 129Z" fill="#205a7a" stroke="#205a7a"></path><path d="M1207 0L1045 0L1066 84Z" fill="#081a28" stroke="#081a28"></path><path d="M1066 84L1045 0L974 126Z" fill="#1d4e6b" stroke="#1d4e6b"></path><path d="M1207 0L1109 122L1214 102Z" fill="#19435d" stroke="#19435d"></path><path d="M516 290L441 330L521 339Z" fill="#297ea6" stroke="#297ea6"></path><path d="M427 411L339 446L473 559Z" fill="#0c2435" stroke="#0c2435"></path><path d="M472 246L441 330L516 290Z" fill="#277297" stroke="#277297"></path><path d="M1045 0L903 0L974 126Z" fill="#297ea6" stroke="#297ea6"></path><path d="M441 330L401 406L427 411Z" fill="#205a7a" stroke="#205a7a"></path><path d="M1575 421L1565 316L1471 358Z" fill="#246688" stroke="#246688"></path><path d="M1572 316L1565 316L1592 338Z" fill="#081a28" stroke="#081a28"></path><path d="M1399 1080L1477 1080L1487 1042Z" fill="#19435d" stroke="#19435d"></path><path d="M1487 1042L1522 1080L1528 910Z" fill="#112e42" stroke="#112e42"></path><path d="M499 1080L527 1080L528 919Z" fill="#112e42" stroke="#112e42"></path><path d="M1592 338L1565 316L1575 421Z" fill="#205a7a" stroke="#205a7a"></path><path d="M1565 316L1572 316L1498 239Z" fill="#297ea6" stroke="#297ea6"></path><path d="M1724 375L1575 421L1592 482Z" fill="#112e42" stroke="#112e42"></path><path d="M1724 375L1592 338L1575 421Z" fill="#00101c" stroke="#00101c"></path><path d="M545 159L516 290L681 213Z" fill="#112e42" stroke="#112e42"></path><path d="M341 390L339 446L401 406Z" fill="#15384f" stroke="#15384f"></path><path d="M650 77L693 206L786 73Z" fill="#112e42" stroke="#112e42"></path><path d="M903 0L824 0L897 125Z" fill="#112e42" stroke="#112e42"></path><path d="M712 0L650 77L786 73Z" fill="#277297" stroke="#277297"></path><path d="M391 911L423 955L526 913Z" fill="#205a7a" stroke="#205a7a"></path><path d="M650 77L545 159L681 213Z" fill="#1d4e6b" stroke="#1d4e6b"></path><path d="M1244 0L1253 129L1334 0Z" fill="#00101c" stroke="#00101c"></path><path d="M403 813L391 911L526 913Z" fill="#297ea6" stroke="#297ea6"></path><path d="M334 890L391 911L403 813Z" fill="#277297" stroke="#277297"></path><path d="M419 1034L499 1080L423 955Z" fill="#205a7a" stroke="#205a7a"></path><path d="M423 955L499 1080L528 919Z" fill="#112e42" stroke="#112e42"></path><path d="M325 589L329 598L374 588Z" fill="#081a28" stroke="#081a28"></path><path d="M374 588L329 598L427 687Z" fill="#081a28" stroke="#081a28"></path><path d="M1398 47L1296 200L1493 115Z" fill="#277297" stroke="#277297"></path><path d="M339 446L325 589L374 588Z" fill="#277297" stroke="#277297"></path><path d="M284 865L334 890L403 813Z" fill="#0c2435" stroke="#0c2435"></path><path d="M1477 1080L1522 1080L1487 1042Z" fill="#246688" stroke="#246688"></path><path d="M1680 936L1596 763L1528 910Z" fill="#0c2435" stroke="#0c2435"></path><path d="M1596 763L1677 748L1591 736Z" fill="#246688" stroke="#246688"></path><path d="M1595 538L1752 491L1592 482Z" fill="#1d4e6b" stroke="#1d4e6b"></path><path d="M1677 748L1686 664L1591 736Z" fill="#246688" stroke="#246688"></path><path d="M401 406L339 446L427 411Z" fill="#1d4e6b" stroke="#1d4e6b"></path><path d="M341 390L401 406L441 330Z" fill="#112e42" stroke="#112e42"></path><path d="M824 0L732 0L786 73Z" fill="#277297" stroke="#277297"></path><path d="M650 77L524 104L545 159Z" fill="#15384f" stroke="#15384f"></path><path d="M732 0L712 0L786 73Z" fill="#246688" stroke="#246688"></path><path d="M325 1080L419 1034L255 992Z" fill="#246688" stroke="#246688"></path><path d="M318 240L441 330L472 246Z" fill="#205a7a" stroke="#205a7a"></path><path d="M315 245L341 390L441 330Z" fill="#1d4e6b" stroke="#1d4e6b"></path><path d="M250 510L267 592L325 589Z" fill="#277297" stroke="#277297"></path><path d="M1493 115L1296 200L1487 235Z" fill="#205a7a" stroke="#205a7a"></path><path d="M1493 115L1487 235L1540 140Z" fill="#00101c" stroke="#00101c"></path><path d="M1487 235L1498 239L1540 140Z" fill="#19435d" stroke="#19435d"></path><path d="M1540 140L1498 239L1673 172Z" fill="#081a28" stroke="#081a28"></path><path d="M284 865L403 813L254 731Z" fill="#277297" stroke="#277297"></path><path d="M255 992L419 1034L423 955Z" fill="#246688" stroke="#246688"></path><path d="M555 47L524 104L650 77Z" fill="#15384f" stroke="#15384f"></path><path d="M545 159L447 181L472 246Z" fill="#0c2435" stroke="#0c2435"></path><path d="M1463 0L1334 0L1398 47Z" fill="#1d4e6b" stroke="#1d4e6b"></path><path d="M1398 47L1334 0L1253 129Z" fill="#081a28" stroke="#081a28"></path><path d="M524 104L447 181L545 159Z" fill="#112e42" stroke="#112e42"></path><path d="M1576 113L1540 140L1673 172Z" fill="#277297" stroke="#277297"></path><path d="M1493 115L1463 0L1398 47Z" fill="#1d4e6b" stroke="#1d4e6b"></path><path d="M1693 231L1572 316L1592 338Z" fill="#205a7a" stroke="#205a7a"></path><path d="M250 510L325 589L339 446Z" fill="#112e42" stroke="#112e42"></path><path d="M325 589L267 592L329 598Z" fill="#205a7a" stroke="#205a7a"></path><path d="M1669 967L1680 936L1528 910Z" fill="#246688" stroke="#246688"></path><path d="M1677 748L1763 682L1686 664Z" fill="#19435d" stroke="#19435d"></path><path d="M568 0L555 47L650 77Z" fill="#19435d" stroke="#19435d"></path><path d="M340 126L340 178L447 181Z" fill="#205a7a" stroke="#205a7a"></path><path d="M1522 1080L1669 967L1528 910Z" fill="#081a28" stroke="#081a28"></path><path d="M1741 864L1723 867L1680 936Z" fill="#00101c" stroke="#00101c"></path><path d="M1680 936L1723 867L1596 763Z" fill="#112e42" stroke="#112e42"></path><path d="M254 731L427 687L329 598Z" fill="#19435d" stroke="#19435d"></path><path d="M325 1080L381 1080L419 1034Z" fill="#246688" stroke="#246688"></path><path d="M236 651L254 731L329 598Z" fill="#277297" stroke="#277297"></path><path d="M1849 758L1763 682L1677 748Z" fill="#277297" stroke="#277297"></path><path d="M1686 664L1752 491L1595 538Z" fill="#19435d" stroke="#19435d"></path><path d="M1763 682L1752 491L1686 664Z" fill="#112e42" stroke="#112e42"></path><path d="M423 955L391 911L255 992Z" fill="#205a7a" stroke="#205a7a"></path><path d="M419 1034L381 1080L499 1080Z" fill="#0c2435" stroke="#0c2435"></path><path d="M242 471L250 510L339 446Z" fill="#277297" stroke="#277297"></path><path d="M236 651L242 723L254 731Z" fill="#15384f" stroke="#15384f"></path><path d="M242 471L339 446L341 390Z" fill="#00101c" stroke="#00101c"></path><path d="M1752 491L1724 375L1592 482Z" fill="#205a7a" stroke="#205a7a"></path><path d="M236 651L329 598L267 592Z" fill="#081a28" stroke="#081a28"></path><path d="M254 731L230 858L284 865Z" fill="#112e42" stroke="#112e42"></path><path d="M1522 1080L1631 1080L1669 967Z" fill="#1d4e6b" stroke="#1d4e6b"></path><path d="M1772 985L1741 864L1680 936Z" fill="#19435d" stroke="#19435d"></path><path d="M151 499L236 651L267 592Z" fill="#15384f" stroke="#15384f"></path><path d="M1772 985L1680 936L1669 967Z" fill="#277297" stroke="#277297"></path><path d="M1723 867L1741 864L1677 748Z" fill="#277297" stroke="#277297"></path><path d="M712 0L568 0L650 77Z" fill="#15384f" stroke="#15384f"></path><path d="M340 126L447 181L424 0Z" fill="#19435d" stroke="#19435d"></path><path d="M1673 172L1498 239L1572 316Z" fill="#00101c" stroke="#00101c"></path><path d="M1540 140L1576 113L1493 115Z" fill="#19435d" stroke="#19435d"></path><path d="M141 306L242 471L341 390Z" fill="#205a7a" stroke="#205a7a"></path><path d="M250 510L151 499L267 592Z" fill="#15384f" stroke="#15384f"></path><path d="M318 240L472 246L447 181Z" fill="#00101c" stroke="#00101c"></path><path d="M1588 0L1463 0L1493 115Z" fill="#205a7a" stroke="#205a7a"></path><path d="M340 178L318 240L447 181Z" fill="#0c2435" stroke="#0c2435"></path><path d="M318 240L315 245L441 330Z" fill="#246688" stroke="#246688"></path><path d="M1724 375L1693 231L1592 338Z" fill="#15384f" stroke="#15384f"></path><path d="M1755 308L1693 231L1724 375Z" fill="#00101c" stroke="#00101c"></path><path d="M148 778L254 731L242 723Z" fill="#246688" stroke="#246688"></path><path d="M148 778L230 858L254 731Z" fill="#205a7a" stroke="#205a7a"></path><path d="M255 992L391 911L334 890Z" fill="#0c2435" stroke="#0c2435"></path><path d="M1812 492L1786 444L1752 491Z" fill="#0c2435" stroke="#0c2435"></path><path d="M1752 491L1786 444L1724 375Z" fill="#246688" stroke="#246688"></path><path d="M447 181L524 104L436 0Z" fill="#205a7a" stroke="#205a7a"></path><path d="M318 240L208 243L315 245Z" fill="#1d4e6b" stroke="#1d4e6b"></path><path d="M255 992L334 890L284 865Z" fill="#00101c" stroke="#00101c"></path><path d="M1764 227L1673 172L1693 231Z" fill="#15384f" stroke="#15384f"></path><path d="M1693 231L1673 172L1572 316Z" fill="#277297" stroke="#277297"></path><path d="M1576 113L1588 0L1493 115Z" fill="#246688" stroke="#246688"></path><path d="M1839 323L1755 308L1724 375Z" fill="#00101c" stroke="#00101c"></path><path d="M1859 576L1812 492L1752 491Z" fill="#246688" stroke="#246688"></path><path d="M1786 444L1839 323L1724 375Z" fill="#297ea6" stroke="#297ea6"></path><path d="M1859 576L1752 491L1763 682Z" fill="#0c2435" stroke="#0c2435"></path><path d="M1750 99L1650 120L1673 172Z" fill="#246688" stroke="#246688"></path><path d="M1673 172L1650 120L1576 113Z" fill="#1d4e6b" stroke="#1d4e6b"></path><path d="M1812 492L1815 468L1786 444Z" fill="#1d4e6b" stroke="#1d4e6b"></path><path d="M216 978L255 992L284 865Z" fill="#081a28" stroke="#081a28"></path><path d="M436 0L524 104L555 47Z" fill="#205a7a" stroke="#205a7a"></path><path d="M235 130L208 243L318 240Z" fill="#081a28" stroke="#081a28"></path><path d="M115 490L151 499L141 306Z" fill="#1d4e6b" stroke="#1d4e6b"></path><path d="M1783 1080L1772 985L1669 967Z" fill="#081a28" stroke="#081a28"></path><path d="M1741 864L1849 758L1677 748Z" fill="#19435d" stroke="#19435d"></path><path d="M1812 492L1920 489L1815 468Z" fill="#277297" stroke="#277297"></path><path d="M568 0L436 0L555 47Z" fill="#0c2435" stroke="#0c2435"></path><path d="M1837 829L1849 758L1741 864Z" fill="#1d4e6b" stroke="#1d4e6b"></path><path d="M1835 911L1837 829L1741 864Z" fill="#0c2435" stroke="#0c2435"></path><path d="M1849 758L1859 576L1763 682Z" fill="#112e42" stroke="#112e42"></path><path d="M1839 323L1764 227L1755 308Z" fill="#081a28" stroke="#081a28"></path><path d="M230 858L216 978L284 865Z" fill="#112e42" stroke="#112e42"></path><path d="M255 992L214 1080L325 1080Z" fill="#297ea6" stroke="#297ea6"></path><path d="M137 958L216 978L230 858Z" fill="#19435d" stroke="#19435d"></path><path d="M148 778L242 723L96 711Z" fill="#19435d" stroke="#19435d"></path><path d="M436 0L424 0L447 181Z" fill="#297ea6" stroke="#297ea6"></path><path d="M1839 323L1786 444L1920 399Z" fill="#081a28" stroke="#081a28"></path><path d="M1755 308L1764 227L1693 231Z" fill="#277297" stroke="#277297"></path><path d="M208 243L341 390L315 245Z" fill="#246688" stroke="#246688"></path><path d="M242 471L151 499L250 510Z" fill="#0c2435" stroke="#0c2435"></path><path d="M1593 0L1576 113L1650 120Z" fill="#112e42" stroke="#112e42"></path><path d="M1593 0L1588 0L1576 113Z" fill="#19435d" stroke="#19435d"></path><path d="M1755 0L1593 0L1650 120Z" fill="#297ea6" stroke="#297ea6"></path><path d="M96 711L242 723L236 651Z" fill="#246688" stroke="#246688"></path><path d="M1920 794L1920 750L1849 758Z" fill="#297ea6" stroke="#297ea6"></path><path d="M1772 985L1835 911L1741 864Z" fill="#19435d" stroke="#19435d"></path><path d="M235 130L340 178L340 126Z" fill="#081a28" stroke="#081a28"></path><path d="M235 130L318 240L340 178Z" fill="#1d4e6b" stroke="#1d4e6b"></path><path d="M1858 321L1839 323L1920 399Z" fill="#112e42" stroke="#112e42"></path><path d="M1764 227L1750 99L1673 172Z" fill="#19435d" stroke="#19435d"></path><path d="M1631 1080L1783 1080L1669 967Z" fill="#205a7a" stroke="#205a7a"></path><path d="M1772 985L1849 1019L1835 911Z" fill="#277297" stroke="#277297"></path><path d="M141 306L151 499L242 471Z" fill="#0c2435" stroke="#0c2435"></path><path d="M55 581L96 711L236 651Z" fill="#1d4e6b" stroke="#1d4e6b"></path><path d="M137 958L214 1080L216 978Z" fill="#15384f" stroke="#15384f"></path><path d="M216 978L214 1080L255 992Z" fill="#19435d" stroke="#19435d"></path><path d="M1920 400L1786 444L1815 468Z" fill="#205a7a" stroke="#205a7a"></path><path d="M1839 323L1858 321L1764 227Z" fill="#19435d" stroke="#19435d"></path><path d="M55 581L236 651L151 499Z" fill="#112e42" stroke="#112e42"></path><path d="M79 845L137 958L230 858Z" fill="#0c2435" stroke="#0c2435"></path><path d="M96 711L98 749L148 778Z" fill="#246688" stroke="#246688"></path><path d="M1920 750L1920 585L1859 576Z" fill="#112e42" stroke="#112e42"></path><path d="M1859 576L1920 489L1812 492Z" fill="#112e42" stroke="#112e42"></path><path d="M1920 750L1859 576L1849 758Z" fill="#297ea6" stroke="#297ea6"></path><path d="M1842 82L1750 99L1764 227Z" fill="#246688" stroke="#246688"></path><path d="M241 72L235 130L340 126Z" fill="#297ea6" stroke="#297ea6"></path><path d="M208 243L141 306L341 390Z" fill="#0c2435" stroke="#0c2435"></path><path d="M424 0L337 0L340 126Z" fill="#112e42" stroke="#112e42"></path><path d="M1920 794L1849 758L1837 829Z" fill="#277297" stroke="#277297"></path><path d="M1920 794L1837 829L1920 888Z" fill="#205a7a" stroke="#205a7a"></path><path d="M48 293L141 306L38 168Z" fill="#0c2435" stroke="#0c2435"></path><path d="M79 845L230 858L148 778Z" fill="#081a28" stroke="#081a28"></path><path d="M1783 1080L1849 1019L1772 985Z" fill="#0c2435" stroke="#0c2435"></path><path d="M1920 585L1920 489L1859 576Z" fill="#246688" stroke="#246688"></path><path d="M1920 888L1837 829L1835 911Z" fill="#112e42" stroke="#112e42"></path><path d="M337 0L270 50L340 126Z" fill="#205a7a" stroke="#205a7a"></path><path d="M48 293L64 358L141 306Z" fill="#112e42" stroke="#112e42"></path><path d="M1920 489L1920 400L1815 468Z" fill="#00101c" stroke="#00101c"></path><path d="M1802 0L1755 0L1750 99Z" fill="#19435d" stroke="#19435d"></path><path d="M1920 400L1920 399L1786 444Z" fill="#081a28" stroke="#081a28"></path><path d="M0 768L79 845L98 749Z" fill="#19435d" stroke="#19435d"></path><path d="M98 749L79 845L148 778Z" fill="#081a28" stroke="#081a28"></path><path d="M0 706L98 749L96 711Z" fill="#00101c" stroke="#00101c"></path><path d="M270 50L241 72L340 126Z" fill="#081a28" stroke="#081a28"></path><path d="M1920 1021L1920 888L1835 911Z" fill="#297ea6" stroke="#297ea6"></path><path d="M0 582L55 581L0 445Z" fill="#0c2435" stroke="#0c2435"></path><path d="M115 490L55 581L151 499Z" fill="#00101c" stroke="#00101c"></path><path d="M55 581L52 671L96 711Z" fill="#112e42" stroke="#112e42"></path><path d="M1783 1080L1848 1080L1849 1019Z" fill="#1d4e6b" stroke="#1d4e6b"></path><path d="M1849 1019L1920 1021L1835 911Z" fill="#1d4e6b" stroke="#1d4e6b"></path><path d="M141 306L64 358L115 490Z" fill="#277297" stroke="#277297"></path><path d="M141 306L208 243L38 168Z" fill="#0c2435" stroke="#0c2435"></path><path d="M1842 82L1764 227L1920 154Z" fill="#0c2435" stroke="#0c2435"></path><path d="M1750 99L1755 0L1650 120Z" fill="#246688" stroke="#246688"></path><path d="M1848 1080L1920 1021L1849 1019Z" fill="#081a28" stroke="#081a28"></path><path d="M0 582L0 636L55 581Z" fill="#205a7a" stroke="#205a7a"></path><path d="M55 581L0 636L52 671Z" fill="#277297" stroke="#277297"></path><path d="M52 671L0 706L96 711Z" fill="#00101c" stroke="#00101c"></path><path d="M1920 215L1764 227L1858 321Z" fill="#15384f" stroke="#15384f"></path><path d="M0 445L55 581L115 490Z" fill="#297ea6" stroke="#297ea6"></path><path d="M0 636L0 706L52 671Z" fill="#246688" stroke="#246688"></path><path d="M79 845L0 939L137 958Z" fill="#246688" stroke="#246688"></path><path d="M1920 399L1920 215L1858 321Z" fill="#15384f" stroke="#15384f"></path><path d="M0 706L0 768L98 749Z" fill="#246688" stroke="#246688"></path><path d="M137 958L53 1080L214 1080Z" fill="#277297" stroke="#277297"></path><path d="M38 168L208 243L235 130Z" fill="#297ea6" stroke="#297ea6"></path><path d="M64 358L0 445L115 490Z" fill="#277297" stroke="#277297"></path><path d="M1848 1080L1920 1080L1920 1021Z" fill="#00101c" stroke="#00101c"></path><path d="M1920 0L1802 0L1842 82Z" fill="#112e42" stroke="#112e42"></path><path d="M1842 82L1802 0L1750 99Z" fill="#112e42" stroke="#112e42"></path><path d="M0 411L0 445L64 358Z" fill="#081a28" stroke="#081a28"></path><path d="M241 72L125 62L235 130Z" fill="#297ea6" stroke="#297ea6"></path><path d="M270 50L201 0L241 72Z" fill="#277297" stroke="#277297"></path><path d="M337 0L201 0L270 50Z" fill="#15384f" stroke="#15384f"></path><path d="M0 279L0 411L64 358Z" fill="#1d4e6b" stroke="#1d4e6b"></path><path d="M0 768L0 867L79 845Z" fill="#112e42" stroke="#112e42"></path><path d="M1920 215L1920 154L1764 227Z" fill="#0c2435" stroke="#0c2435"></path><path d="M1920 154L1920 132L1842 82Z" fill="#1d4e6b" stroke="#1d4e6b"></path><path d="M0 867L0 939L79 845Z" fill="#0c2435" stroke="#0c2435"></path><path d="M0 939L53 1080L137 958Z" fill="#1d4e6b" stroke="#1d4e6b"></path><path d="M201 0L125 62L241 72Z" fill="#112e42" stroke="#112e42"></path><path d="M48 293L0 279L64 358Z" fill="#277297" stroke="#277297"></path><path d="M0 202L0 279L48 293Z" fill="#15384f" stroke="#15384f"></path><path d="M125 62L38 168L235 130Z" fill="#19435d" stroke="#19435d"></path><path d="M0 123L0 202L38 168Z" fill="#277297" stroke="#277297"></path><path d="M38 168L0 202L48 293Z" fill="#1d4e6b" stroke="#1d4e6b"></path><path d="M0 939L0 1080L53 1080Z" fill="#297ea6" stroke="#297ea6"></path><path d="M1920 132L1920 0L1842 82Z" fill="#205a7a" stroke="#205a7a"></path><path d="M51 0L0 123L125 62Z" fill="#246688" stroke="#246688"></path><path d="M125 62L0 123L38 168Z" fill="#081a28" stroke="#081a28"></path><path d="M201 0L51 0L125 62Z" fill="#081a28" stroke="#081a28"></path><path d="M51 0L0 0L0 123Z" fill="#205a7a" stroke="#205a7a"></path></g></svg>