<svg id="visual" viewBox="0 0 3840 2160" width="3840" height="2160" xmlns="http://www.w3.org/2000/svg" xmlns:xlink="http://www.w3.org/1999/xlink" version="1.1"><rect width="3840" height="2160" fill="#001829"></rect><g><g transform="translate(1686 872)"><path d="M0 -104.6L90.6 -52.3L90.6 52.3L0 104.6L-90.6 52.3L-90.6 -52.3Z" stroke="#297EA6" fill="none" stroke-width="2"></path></g><g transform="translate(2737 787)"><path d="M0 -91L78.8 -45.5L78.8 45.5L0 91L-78.8 45.5L-78.8 -45.5Z" stroke="#297EA6" fill="none" stroke-width="2"></path></g><g transform="translate(423 1227)"><path d="M0 -92L79.7 -46L79.7 46L0 92L-79.7 46L-79.7 -46Z" stroke="#297EA6" fill="none" stroke-width="2"></path></g><g transform="translate(2137 462)"><path d="M0 -95L82.3 -47.5L82.3 47.5L0 95L-82.3 47.5L-82.3 -47.5Z" stroke="#297EA6" fill="none" stroke-width="2"></path></g><g transform="translate(3459 912)"><path d="M0 -97L84 -48.5L84 48.5L0 97L-84 48.5L-84 -48.5Z" stroke="#297EA6" fill="none" stroke-width="2"></path></g><g transform="translate(785 1737)"><path d="M0 -102L88.3 -51L88.3 51L0 102L-88.3 51L-88.3 -51Z" stroke="#297EA6" fill="none" stroke-width="2"></path></g><g transform="translate(3493 579)"><path d="M0 -90L77.9 -45L77.9 45L0 90L-77.9 45L-77.9 -45Z" stroke="#297EA6" fill="none" stroke-width="2"></path></g><g transform="translate(1209 942)"><path d="M0 -96L83.1 -48L83.1 48L0 96L-83.1 48L-83.1 -48Z" stroke="#297EA6" fill="none" stroke-width="2"></path></g><g transform="translate(2848 509)"><path d="M0 -97L84 -48.5L84 48.5L0 97L-84 48.5L-84 -48.5Z" stroke="#297EA6" fill="none" stroke-width="2"></path></g><g transform="translate(3086 207)"><path d="M0 -93L80.5 -46.5L80.5 46.5L0 93L-80.5 46.5L-80.5 -46.5Z" stroke="#297EA6" fill="none" stroke-width="2"></path></g><g transform="translate(2071 214)"><path d="M0 -99L85.7 -49.5L85.7 49.5L0 99L-85.7 49.5L-85.7 -49.5Z" stroke="#297EA6" fill="none" stroke-width="2"></path></g><g transform="translate(2329 2154)"><path d="M0 -79L68.4 -39.5L68.4 39.5L0 79L-68.4 39.5L-68.4 -39.5Z" stroke="#297EA6" fill="none" stroke-width="2"></path></g><g transform="translate(314 544)"><path d="M0 -89L77.1 -44.5L77.1 44.5L0 89L-77.1 44.5L-77.1 -44.5Z" stroke="#297EA6" fill="none" stroke-width="2"></path></g><g transform="translate(1923 986)"><path d="M0 -88L76.2 -44L76.2 44L0 88L-76.2 44L-76.2 -44Z" stroke="#297EA6" fill="none" stroke-width="2"></path></g><g transform="translate(2526 286)"><path d="M0 -88L76.2 -44L76.2 44L0 88L-76.2 44L-76.2 -44Z" stroke="#297EA6" fill="none" stroke-width="2"></path></g><g transform="translate(988 489)"><path d="M0 -90L77.9 -45L77.9 45L0 90L-77.9 45L-77.9 -45Z" stroke="#297EA6" fill="none" stroke-width="2"></path></g><g transform="translate(1114 265)"><path d="M0 -78L67.5 -39L67.5 39L0 78L-67.5 39L-67.5 -39Z" stroke="#297EA6" fill="none" stroke-width="2"></path></g><g transform="translate(2718 1726)"><path d="M0 -103L89.2 -51.5L89.2 51.5L0 103L-89.2 51.5L-89.2 -51.5Z" stroke="#297EA6" fill="none" stroke-width="2"></path></g><g transform="translate(1418 1261)"><path d="M0 -82L71 -41L71 41L0 82L-71 41L-71 -41Z" stroke="#297EA6" fill="none" stroke-width="2"></path></g><g transform="translate(1219 525)"><path d="M0 -101L87.5 -50.5L87.5 50.5L0 101L-87.5 50.5L-87.5 -50.5Z" stroke="#297EA6" fill="none" stroke-width="2"></path></g><g transform="translate(1735 1971)"><path d="M0 -96L83.1 -48L83.1 48L0 96L-83.1 48L-83.1 -48Z" stroke="#297EA6" fill="none" stroke-width="2"></path></g><g transform="translate(2684 2034)"><path d="M0 -82L71 -41L71 41L0 82L-71 41L-71 -41Z" stroke="#297EA6" fill="none" stroke-width="2"></path></g><g transform="translate(1357 1464)"><path d="M0 -87L75.3 -43.5L75.3 43.5L0 87L-75.3 43.5L-75.3 -43.5Z" stroke="#297EA6" fill="none" stroke-width="2"></path></g><g transform="translate(942 2101)"><path d="M0 -90L77.9 -45L77.9 45L0 90L-77.9 45L-77.9 -45Z" stroke="#297EA6" fill="none" stroke-width="2"></path></g><g transform="translate(3119 725)"><path d="M0 -94L81.4 -47L81.4 47L0 94L-81.4 47L-81.4 -47Z" stroke="#297EA6" fill="none" stroke-width="2"></path></g><g transform="translate(3081 429)"><path d="M0 -91L78.8 -45.5L78.8 45.5L0 91L-78.8 45.5L-78.8 -45.5Z" stroke="#297EA6" fill="none" stroke-width="2"></path></g><g transform="translate(3368 1157)"><path d="M0 -79L68.4 -39.5L68.4 39.5L0 79L-68.4 39.5L-68.4 -39.5Z" stroke="#297EA6" fill="none" stroke-width="2"></path></g><g transform="translate(2237 1324)"><path d="M0 -93L80.5 -46.5L80.5 46.5L0 93L-80.5 46.5L-80.5 -46.5Z" stroke="#297EA6" fill="none" stroke-width="2"></path></g><g transform="translate(2503 1165)"><path d="M0 -78L67.5 -39L67.5 39L0 78L-67.5 39L-67.5 -39Z" stroke="#297EA6" fill="none" stroke-width="2"></path></g><g transform="translate(2744 1049)"><path d="M0 -89L77.1 -44.5L77.1 44.5L0 89L-77.1 44.5L-77.1 -44.5Z" stroke="#297EA6" fill="none" stroke-width="2"></path></g><g transform="translate(1383 734)"><path d="M0 -101L87.5 -50.5L87.5 50.5L0 101L-87.5 50.5L-87.5 -50.5Z" stroke="#297EA6" fill="none" stroke-width="2"></path></g><g transform="translate(3371 1653)"><path d="M0 -91L78.8 -45.5L78.8 45.5L0 91L-78.8 45.5L-78.8 -45.5Z" stroke="#297EA6" fill="none" stroke-width="2"></path></g><g transform="translate(841 701)"><path d="M0 -82L71 -41L71 41L0 82L-71 41L-71 -41Z" stroke="#297EA6" fill="none" stroke-width="2"></path></g><g transform="translate(3829 452)"><path d="M0 -97L84 -48.5L84 48.5L0 97L-84 48.5L-84 -48.5Z" stroke="#297EA6" fill="none" stroke-width="2"></path></g><g transform="translate(3744 971)"><path d="M0 -101L87.5 -50.5L87.5 50.5L0 101L-87.5 50.5L-87.5 -50.5Z" stroke="#297EA6" fill="none" stroke-width="2"></path></g><g transform="translate(3364 373)"><path d="M0 -99L85.7 -49.5L85.7 49.5L0 99L-85.7 49.5L-85.7 -49.5Z" stroke="#297EA6" fill="none" stroke-width="2"></path></g><g transform="translate(1846 1659)"><path d="M0 -99L85.7 -49.5L85.7 49.5L0 99L-85.7 49.5L-85.7 -49.5Z" stroke="#297EA6" fill="none" stroke-width="2"></path></g><g transform="translate(3530 197)"><path d="M0 -96L83.1 -48L83.1 48L0 96L-83.1 48L-83.1 -48Z" stroke="#297EA6" fill="none" stroke-width="2"></path></g><g transform="translate(3026 1556)"><path d="M0 -89L77.1 -44.5L77.1 44.5L0 89L-77.1 44.5L-77.1 -44.5Z" stroke="#297EA6" fill="none" stroke-width="2"></path></g><g transform="translate(89 221)"><path d="M0 -96L83.1 -48L83.1 48L0 96L-83.1 48L-83.1 -48Z" stroke="#297EA6" fill="none" stroke-width="2"></path></g><g transform="translate(749 1466)"><path d="M0 -97L84 -48.5L84 48.5L0 97L-84 48.5L-84 -48.5Z" stroke="#297EA6" fill="none" stroke-width="2"></path></g><g transform="translate(1522 1955)"><path d="M0 -88L76.2 -44L76.2 44L0 88L-76.2 44L-76.2 -44Z" stroke="#297EA6" fill="none" stroke-width="2"></path></g><g transform="translate(1662 582)"><path d="M0 -91L78.8 -45.5L78.8 45.5L0 91L-78.8 45.5L-78.8 -45.5Z" stroke="#297EA6" fill="none" stroke-width="2"></path></g><g transform="translate(3276 1431)"><path d="M0 -93L80.5 -46.5L80.5 46.5L0 93L-80.5 46.5L-80.5 -46.5Z" stroke="#297EA6" fill="none" stroke-width="2"></path></g><g transform="translate(3734 1750)"><path d="M0 -79L68.4 -39.5L68.4 39.5L0 79L-68.4 39.5L-68.4 -39.5Z" stroke="#297EA6" fill="none" stroke-width="2"></path></g><g transform="translate(999 1215)"><path d="M0 -86L74.5 -43L74.5 43L0 86L-74.5 43L-74.5 -43Z" stroke="#297EA6" fill="none" stroke-width="2"></path></g><g transform="translate(2528 1634)"><path d="M0 -90L77.9 -45L77.9 45L0 90L-77.9 45L-77.9 -45Z" stroke="#297EA6" fill="none" stroke-width="2"></path></g><g transform="translate(3005 1785)"><path d="M0 -88L76.2 -44L76.2 44L0 88L-76.2 44L-76.2 -44Z" stroke="#297EA6" fill="none" stroke-width="2"></path></g><g transform="translate(1673 195)"><path d="M0 -86L74.5 -43L74.5 43L0 86L-74.5 43L-74.5 -43Z" stroke="#297EA6" fill="none" stroke-width="2"></path></g><g transform="translate(2005 2114)"><path d="M0 -84L72.7 -42L72.7 42L0 84L-72.7 42L-72.7 -42Z" stroke="#297EA6" fill="none" stroke-width="2"></path></g><g transform="translate(875 284)"><path d="M0 -95L82.3 -47.5L82.3 47.5L0 95L-82.3 47.5L-82.3 -47.5Z" stroke="#297EA6" fill="none" stroke-width="2"></path></g><g transform="translate(1383 224)"><path d="M0 -96L83.1 -48L83.1 48L0 96L-83.1 48L-83.1 -48Z" stroke="#297EA6" fill="none" stroke-width="2"></path></g><g transform="translate(1042 1767)"><path d="M0 -88L76.2 -44L76.2 44L0 88L-76.2 44L-76.2 -44Z" stroke="#297EA6" fill="none" stroke-width="2"></path></g><g transform="translate(324 1621)"><path d="M0 -85L73.6 -42.5L73.6 42.5L0 85L-73.6 42.5L-73.6 -42.5Z" stroke="#297EA6" fill="none" stroke-width="2"></path></g><g transform="translate(2475 706)"><path d="M0 -84L72.7 -42L72.7 42L0 84L-72.7 42L-72.7 -42Z" stroke="#297EA6" fill="none" stroke-width="2"></path></g><g transform="translate(2790 10)"><path d="M0 -96L83.1 -48L83.1 48L0 96L-83.1 48L-83.1 -48Z" stroke="#297EA6" fill="none" stroke-width="2"></path></g><g transform="translate(1980 773)"><path d="M0 -103L89.2 -51.5L89.2 51.5L0 103L-89.2 51.5L-89.2 -51.5Z" stroke="#297EA6" fill="none" stroke-width="2"></path></g><g transform="translate(2304 1554)"><path d="M0 -103L89.2 -51.5L89.2 51.5L0 103L-89.2 51.5L-89.2 -51.5Z" stroke="#297EA6" fill="none" stroke-width="2"></path></g><g transform="translate(3481 2026)"><path d="M0 -82L71 -41L71 41L0 82L-71 41L-71 -41Z" stroke="#297EA6" fill="none" stroke-width="2"></path></g><g transform="translate(379 163)"><path d="M0 -80L69.3 -40L69.3 40L0 80L-69.3 40L-69.3 -40Z" stroke="#297EA6" fill="none" stroke-width="2"></path></g><g transform="translate(3735 727)"><path d="M0 -89L77.1 -44.5L77.1 44.5L0 89L-77.1 44.5L-77.1 -44.5Z" stroke="#297EA6" fill="none" stroke-width="2"></path></g><g transform="translate(123 743)"><path d="M0 -102L88.3 -51L88.3 51L0 102L-88.3 51L-88.3 -51Z" stroke="#297EA6" fill="none" stroke-width="2"></path></g><g transform="translate(2352 34)"><path d="M0 -81L70.1 -40.5L70.1 40.5L0 81L-70.1 40.5L-70.1 -40.5Z" stroke="#297EA6" fill="none" stroke-width="2"></path></g><g transform="translate(1281 1822)"><path d="M0 -102L88.3 -51L88.3 51L0 102L-88.3 51L-88.3 -51Z" stroke="#297EA6" fill="none" stroke-width="2"></path></g><g transform="translate(1737 1470)"><path d="M0 -90L77.9 -45L77.9 45L0 90L-77.9 45L-77.9 -45Z" stroke="#297EA6" fill="none" stroke-width="2"></path></g><g transform="translate(757 948)"><path d="M0 -95L82.3 -47.5L82.3 47.5L0 95L-82.3 47.5L-82.3 -47.5Z" stroke="#297EA6" fill="none" stroke-width="2"></path></g><g transform="translate(332 1845)"><path d="M0 -98L84.9 -49L84.9 49L0 98L-84.9 49L-84.9 -49Z" stroke="#297EA6" fill="none" stroke-width="2"></path></g><g transform="translate(1682 1157)"><path d="M0 -90L77.9 -45L77.9 45L0 90L-77.9 45L-77.9 -45Z" stroke="#297EA6" fill="none" stroke-width="2"></path></g><g transform="translate(2298 1823)"><path d="M0 -82L71 -41L71 41L0 82L-71 41L-71 -41Z" stroke="#297EA6" fill="none" stroke-width="2"></path></g><g transform="translate(49 1769)"><path d="M0 -94L81.4 -47L81.4 47L0 94L-81.4 47L-81.4 -47Z" stroke="#297EA6" fill="none" stroke-width="2"></path></g><g transform="translate(2354 938)"><path d="M0 -92L79.7 -46L79.7 46L0 92L-79.7 46L-79.7 -46Z" stroke="#297EA6" fill="none" stroke-width="2"></path></g><g transform="translate(119 1223)"><path d="M0 -79L68.4 -39.5L68.4 39.5L0 79L-68.4 39.5L-68.4 -39.5Z" stroke="#297EA6" fill="none" stroke-width="2"></path></g><g transform="translate(3712 1255)"><path d="M0 -89L77.1 -44.5L77.1 44.5L0 89L-77.1 44.5L-77.1 -44.5Z" stroke="#297EA6" fill="none" stroke-width="2"></path></g><g transform="translate(1918 548)"><path d="M0 -98L84.9 -49L84.9 49L0 98L-84.9 49L-84.9 -49Z" stroke="#297EA6" fill="none" stroke-width="2"></path></g><g transform="translate(646 151)"><path d="M0 -93L80.5 -46.5L80.5 46.5L0 93L-80.5 46.5L-80.5 -46.5Z" stroke="#297EA6" fill="none" stroke-width="2"></path></g><g transform="translate(400 2128)"><path d="M0 -94L81.4 -47L81.4 47L0 94L-81.4 47L-81.4 -47Z" stroke="#297EA6" fill="none" stroke-width="2"></path></g><g transform="translate(1019 1536)"><path d="M0 -88L76.2 -44L76.2 44L0 88L-76.2 44L-76.2 -44Z" stroke="#297EA6" fill="none" stroke-width="2"></path></g><g transform="translate(1973 1406)"><path d="M0 -100L86.6 -50L86.6 50L0 100L-86.6 50L-86.6 -50Z" stroke="#297EA6" fill="none" stroke-width="2"></path></g><g transform="translate(3629 1515)"><path d="M0 -93L80.5 -46.5L80.5 46.5L0 93L-80.5 46.5L-80.5 -46.5Z" stroke="#297EA6" fill="none" stroke-width="2"></path></g><g transform="translate(3786 148)"><path d="M0 -79L68.4 -39.5L68.4 39.5L0 79L-68.4 39.5L-68.4 -39.5Z" stroke="#297EA6" fill="none" stroke-width="2"></path></g><g transform="translate(3752 2079)"><path d="M0 -94L81.4 -47L81.4 47L0 94L-81.4 47L-81.4 -47Z" stroke="#297EA6" fill="none" stroke-width="2"></path></g><g transform="translate(3055 1051)"><path d="M0 -97L84 -48.5L84 48.5L0 97L-84 48.5L-84 -48.5Z" stroke="#297EA6" fill="none" stroke-width="2"></path></g><g transform="translate(2671 1459)"><path d="M0 -85L73.6 -42.5L73.6 42.5L0 85L-73.6 42.5L-73.6 -42.5Z" stroke="#297EA6" fill="none" stroke-width="2"></path></g><g transform="translate(1820 2)"><path d="M0 -92L79.7 -46L79.7 46L0 92L-79.7 46L-79.7 -46Z" stroke="#297EA6" fill="none" stroke-width="2"></path></g><g transform="translate(622 476)"><path d="M0 -103L89.2 -51.5L89.2 51.5L0 103L-89.2 51.5L-89.2 -51.5Z" stroke="#297EA6" fill="none" stroke-width="2"></path></g><g transform="translate(641 1150)"><path d="M0 -81L70.1 -40.5L70.1 40.5L0 81L-70.1 40.5L-70.1 -40.5Z" stroke="#297EA6" fill="none" stroke-width="2"></path></g><g transform="translate(643 2016)"><path d="M0 -98L84.9 -49L84.9 49L0 98L-84.9 49L-84.9 -49Z" stroke="#297EA6" fill="none" stroke-width="2"></path></g><g transform="translate(3051 2065)"><path d="M0 -94L81.4 -47L81.4 47L0 94L-81.4 47L-81.4 -47Z" stroke="#297EA6" fill="none" stroke-width="2"></path></g><g transform="translate(2826 246)"><path d="M0 -80L69.3 -40L69.3 40L0 80L-69.3 40L-69.3 -40Z" stroke="#297EA6" fill="none" stroke-width="2"></path></g><g transform="translate(558 1597)"><path d="M0 -82L71 -41L71 41L0 82L-71 41L-71 -41Z" stroke="#297EA6" fill="none" stroke-width="2"></path></g><g transform="translate(3347 28)"><path d="M0 -98L84.9 -49L84.9 49L0 98L-84.9 49L-84.9 -49Z" stroke="#297EA6" fill="none" stroke-width="2"></path></g><g transform="translate(1505 396)"><path d="M0 -88L76.2 -44L76.2 44L0 88L-76.2 44L-76.2 -44Z" stroke="#297EA6" fill="none" stroke-width="2"></path></g><g transform="translate(2503 1899)"><path d="M0 -97L84 -48.5L84 48.5L0 97L-84 48.5L-84 -48.5Z" stroke="#297EA6" fill="none" stroke-width="2"></path></g><g transform="translate(81 439)"><path d="M0 -92L79.7 -46L79.7 46L0 92L-79.7 46L-79.7 -46Z" stroke="#297EA6" fill="none" stroke-width="2"></path></g><g transform="translate(1997 1817)"><path d="M0 -92L79.7 -46L79.7 46L0 92L-79.7 46L-79.7 -46Z" stroke="#297EA6" fill="none" stroke-width="2"></path></g><g transform="translate(1626 1770)"><path d="M0 -80L69.3 -40L69.3 40L0 80L-69.3 40L-69.3 -40Z" stroke="#297EA6" fill="none" stroke-width="2"></path></g><g transform="translate(1 993)"><path d="M0 -78L67.5 -39L67.5 39L0 78L-67.5 39L-67.5 -39Z" stroke="#297EA6" fill="none" stroke-width="2"></path></g><g transform="translate(1486 964)"><path d="M0 -92L79.7 -46L79.7 46L0 92L-79.7 46L-79.7 -46Z" stroke="#297EA6" fill="none" stroke-width="2"></path></g><g transform="translate(3269 566)"><path d="M0 -84L72.7 -42L72.7 42L0 84L-72.7 42L-72.7 -42Z" stroke="#297EA6" fill="none" stroke-width="2"></path></g><g transform="translate(1016 34)"><path d="M0 -103L89.2 -51.5L89.2 51.5L0 103L-89.2 51.5L-89.2 -51.5Z" stroke="#297EA6" fill="none" stroke-width="2"></path></g><g transform="translate(86 1437)"><path d="M0 -96L83.1 -48L83.1 48L0 96L-83.1 48L-83.1 -48Z" stroke="#297EA6" fill="none" stroke-width="2"></path></g><g transform="translate(1487 13)"><path d="M0 -103L89.2 -51.5L89.2 51.5L0 103L-89.2 51.5L-89.2 -51.5Z" stroke="#297EA6" fill="none" stroke-width="2"></path></g><g transform="translate(526 864)"><path d="M0 -78L67.5 -39L67.5 39L0 78L-67.5 39L-67.5 -39Z" stroke="#297EA6" fill="none" stroke-width="2"></path></g><g transform="translate(2865 1248)"><path d="M0 -94L81.4 -47L81.4 47L0 94L-81.4 47L-81.4 -47Z" stroke="#297EA6" fill="none" stroke-width="2"></path></g><g transform="translate(1262 2046)"><path d="M0 -88L76.2 -44L76.2 44L0 88L-76.2 44L-76.2 -44Z" stroke="#297EA6" fill="none" stroke-width="2"></path></g><g transform="translate(234 1021)"><path d="M0 -90L77.9 -45L77.9 45L0 90L-77.9 45L-77.9 -45Z" stroke="#297EA6" fill="none" stroke-width="2"></path></g><g transform="translate(1106 720)"><path d="M0 -89L77.1 -44.5L77.1 44.5L0 89L-77.1 44.5L-77.1 -44.5Z" stroke="#297EA6" fill="none" stroke-width="2"></path></g><g transform="translate(3206 1916)"><path d="M0 -96L83.1 -48L83.1 48L0 96L-83.1 48L-83.1 -48Z" stroke="#297EA6" fill="none" stroke-width="2"></path></g><g transform="translate(67 2048)"><path d="M0 -78L67.5 -39L67.5 39L0 78L-67.5 39L-67.5 -39Z" stroke="#297EA6" fill="none" stroke-width="2"></path></g><g transform="translate(2134 1132)"><path d="M0 -86L74.5 -43L74.5 43L0 86L-74.5 43L-74.5 -43Z" stroke="#297EA6" fill="none" stroke-width="2"></path></g><g transform="translate(3130 1247)"><path d="M0 -97L84 -48.5L84 48.5L0 97L-84 48.5L-84 -48.5Z" stroke="#297EA6" fill="none" stroke-width="2"></path></g><g transform="translate(1867 302)"><path d="M0 -88L76.2 -44L76.2 44L0 88L-76.2 44L-76.2 -44Z" stroke="#297EA6" fill="none" stroke-width="2"></path></g><g transform="translate(2960 864)"><path d="M0 -100L86.6 -50L86.6 50L0 100L-86.6 50L-86.6 -50Z" stroke="#297EA6" fill="none" stroke-width="2"></path></g><g transform="translate(1156 1357)"><path d="M0 -102L88.3 -51L88.3 51L0 102L-88.3 51L-88.3 -51Z" stroke="#297EA6" fill="none" stroke-width="2"></path></g><g transform="translate(2217 665)"><path d="M0 -95L82.3 -47.5L82.3 47.5L0 95L-82.3 47.5L-82.3 -47.5Z" stroke="#297EA6" fill="none" stroke-width="2"></path></g><g transform="translate(970 944)"><path d="M0 -90L77.9 -45L77.9 45L0 90L-77.9 45L-77.9 -45Z" stroke="#297EA6" fill="none" stroke-width="2"></path></g><g transform="translate(1226 74)"><path d="M0 -78L67.5 -39L67.5 39L0 78L-67.5 39L-67.5 -39Z" stroke="#297EA6" fill="none" stroke-width="2"></path></g><g transform="translate(137 1)"><path d="M0 -102L88.3 -51L88.3 51L0 102L-88.3 51L-88.3 -51Z" stroke="#297EA6" fill="none" stroke-width="2"></path></g><g transform="translate(3251 2153)"><path d="M0 -81L70.1 -40.5L70.1 40.5L0 81L-70.1 40.5L-70.1 -40.5Z" stroke="#297EA6" fill="none" stroke-width="2"></path></g><g transform="translate(2624 522)"><path d="M0 -100L86.6 -50L86.6 50L0 100L-86.6 50L-86.6 -50Z" stroke="#297EA6" fill="none" stroke-width="2"></path></g><g transform="translate(1896 1198)"><path d="M0 -102L88.3 -51L88.3 51L0 102L-88.3 51L-88.3 -51Z" stroke="#297EA6" fill="none" stroke-width="2"></path></g><g transform="translate(2361 501)"><path d="M0 -86L74.5 -43L74.5 43L0 86L-74.5 43L-74.5 -43Z" stroke="#297EA6" fill="none" stroke-width="2"></path></g><g transform="translate(3240 919)"><path d="M0 -95L82.3 -47.5L82.3 47.5L0 95L-82.3 47.5L-82.3 -47.5Z" stroke="#297EA6" fill="none" stroke-width="2"></path></g><g transform="translate(1437 1667)"><path d="M0 -102L88.3 -51L88.3 51L0 102L-88.3 51L-88.3 -51Z" stroke="#297EA6" fill="none" stroke-width="2"></path></g><g transform="translate(2300 264)"><path d="M0 -102L88.3 -51L88.3 51L0 102L-88.3 51L-88.3 -51Z" stroke="#297EA6" fill="none" stroke-width="2"></path></g><g transform="translate(1448 2154)"><path d="M0 -84L72.7 -42L72.7 42L0 84L-72.7 42L-72.7 -42Z" stroke="#297EA6" fill="none" stroke-width="2"></path></g><g transform="translate(2570 4)"><path d="M0 -101L87.5 -50.5L87.5 50.5L0 101L-87.5 50.5L-87.5 -50.5Z" stroke="#297EA6" fill="none" stroke-width="2"></path></g><g transform="translate(2092 1579)"><path d="M0 -91L78.8 -45.5L78.8 45.5L0 91L-78.8 45.5L-78.8 -45.5Z" stroke="#297EA6" fill="none" stroke-width="2"></path></g><g transform="translate(3629 387)"><path d="M0 -92L79.7 -46L79.7 46L0 92L-79.7 46L-79.7 -46Z" stroke="#297EA6" fill="none" stroke-width="2"></path></g><g transform="translate(3002 9)"><path d="M0 -90L77.9 -45L77.9 45L0 90L-77.9 45L-77.9 -45Z" stroke="#297EA6" fill="none" stroke-width="2"></path></g><g transform="translate(336 768)"><path d="M0 -80L69.3 -40L69.3 40L0 80L-69.3 40L-69.3 -40Z" stroke="#297EA6" fill="none" stroke-width="2"></path></g><g transform="translate(3491 1357)"><path d="M0 -86L74.5 -43L74.5 43L0 86L-74.5 43L-74.5 -43Z" stroke="#297EA6" fill="none" stroke-width="2"></path></g></g></svg>